<?xml version="1.0" encoding="utf-8"?>
<!-- Generator: Adobe Illustrator 19.1.0, SVG Export Plug-In . SVG Version: 6.00 Build 0)  -->
<svg version="1.1" id="Ebene_1" xmlns="http://www.w3.org/2000/svg" xmlns:xlink="http://www.w3.org/1999/xlink" x="0px" y="0px"
	 viewBox="0 0 325 327" enable-background="new 0 0 325 327" xml:space="preserve">
<g>
	<g>
		<defs>
			<path id="SVGID_1_" d="M87,12v52c0,6.6,5.4,12,12,12c6.6,0,12-5.4,12-12V12c0-6.6-5.4-12-12-12C92.4,0,87,5.4,87,12z"/>
		</defs>
		<clipPath id="SVGID_2_">
			<use xlink:href="#SVGID_1_"  overflow="visible"/>
		</clipPath>
		<rect x="87" clip-path="url(#SVGID_2_)" fill="#52BE80" width="24" height="76"/>
	</g>
	<g>
		<defs>
			<path id="SVGID_3_" d="M217,12v52c0,6.6,5.4,12,12,12c6.6,0,12-5.4,12-12V12c0-6.6-5.4-12-12-12C222.4,0,217,5.4,217,12z"/>
		</defs>
		<clipPath id="SVGID_4_">
			<use xlink:href="#SVGID_3_"  overflow="visible"/>
		</clipPath>
		<rect x="217" clip-path="url(#SVGID_4_)" fill="#52BE80" width="24" height="76"/>
	</g>
	<g>
		<rect x="121" y="23" fill="#52BE80" width="86" height="25"/>
		<path fill="#52BE80" d="M284.2,23H251v25h33.2c8.8,0,15.8,7.3,15.8,16.1v222.1c0,8.8-7,15.9-15.8,15.9H41.3
			c-8.8,0-16.3-7.1-16.3-15.9V64.1C25,55.3,32.5,48,41.3,48H77V23H41.3C18.7,23,0,41.5,0,64.1v222.1C0,308.7,18.7,327,41.3,327
			h242.9c22.6,0,40.8-18.3,40.8-40.9V64.1C325,41.5,306.8,23,284.2,23z"/>
	</g>
	<g>
		<defs>
			<path id="SVGID_5_" d="M87,12v52c0,6.6,5.4,12,12,12c6.6,0,12-5.4,12-12V12c0-6.6-5.4-12-12-12C92.4,0,87,5.4,87,12z"/>
		</defs>
		<clipPath id="SVGID_6_">
			<use xlink:href="#SVGID_5_"  overflow="visible"/>
		</clipPath>
		<rect x="87" clip-path="url(#SVGID_6_)" fill="#52BE80" width="24" height="76"/>
	</g>
</g>
</svg>
