<?xml version="1.0" encoding="UTF-8" standalone="no"?>
<svg width="67px" height="50px" viewBox="0 0 67 50" version="1.1" xmlns="http://www.w3.org/2000/svg" xmlns:xlink="http://www.w3.org/1999/xlink" xmlns:sketch="http://www.bohemiancoding.com/sketch/ns">
    <!-- Generator: Sketch 3.3.3 (12072) - http://www.bohemiancoding.com/sketch -->
    <title>Arrow</title>
    <desc>Created with Sketch.</desc>
    <defs></defs>
    <g id="Page-1" stroke="none" stroke-width="1" fill="none" fill-rule="evenodd" sketch:type="MSPage">
        <g id="Antwort-screen-asylantrag" sketch:type="MSArtboardGroup" transform="translate(-1298.000000, -869.000000)" fill="#000000">
            <g id="Footer" sketch:type="MSLayerGroup" transform="translate(0.000000, 813.000000)">
                <g id="Rectangle-12-+-Arrow-+-WEITER" transform="translate(1230.000000, 0.000000)" sketch:type="MSShapeGroup">
                    <path d="M113.775062,75.0838855 L74.2909073,75.0838855 C70.8093344,75.0838855 68,77.9016204 68,81.3774726 C68,84.8462522 70.8165352,87.6710597 74.2909073,87.6710597 L112.988363,87.6710597 L105.904953,94.7544702 C103.442933,97.2164901 103.442092,101.202211 105.89989,103.660009 C108.352688,106.112807 112.344834,106.115541 114.805429,103.654946 L131.512775,86.9476008 C132.721236,86.3099165 133.695677,85.2902743 134.277163,84.0492842 C134.780294,83.0943883 135.020799,82.0371667 134.998592,80.9841234 C135.033488,79.3294253 134.419708,77.6644104 133.157599,76.4023007 C132.786644,76.0313461 132.38048,75.7164311 131.94973,75.4576017 L114.805429,58.3133004 C112.344834,55.8527057 108.352688,55.8554402 105.89989,58.3082377 C103.442092,60.7660364 103.442933,64.7517568 105.904953,67.2137767 L113.775062,75.0838855 Z" id="Arrow"></path>
                </g>
            </g>
        </g>
    </g>
</svg>