<?xml version="1.0" encoding="utf-8"?>
<!-- Generator: Adobe Illustrator 19.1.0, SVG Export Plug-In . SVG Version: 6.00 Build 0)  -->
<svg version="1.1" id="Ebene_1" xmlns:sketch="http://www.bohemiancoding.com/sketch/ns"
	 xmlns="http://www.w3.org/2000/svg" xmlns:xlink="http://www.w3.org/1999/xlink" x="0px" y="0px" viewBox="-606 376 67 50"
	 enable-background="new -606 376 67 50" xml:space="preserve">
<title>Arrow</title>
<desc>Created with Sketch.</desc>
<g id="Page-1" sketch:type="MSPage">
	<g id="Antwort-screen-asylantrag" transform="translate(-1298.000000, -869.000000)" sketch:type="MSArtboardGroup">
		<g id="Footer" transform="translate(0.000000, 813.000000)" sketch:type="MSLayerGroup">
			<g id="Rectangle-12-_x2B_-Arrow-_x2B_-WEITER" transform="translate(1230.000000, 0.000000)" sketch:type="MSShapeGroup">
				<path id="Arrow" fill="#FFFFFF" d="M-492.2,451.1h-39.5c-3.5,0-6.3,2.8-6.3,6.3c0,3.5,2.8,6.3,6.3,6.3h38.7l-7.1,7.1
					c-2.5,2.5-2.5,6.4,0,8.9c2.5,2.5,6.4,2.5,8.9,0l16.7-16.7c1.2-0.6,2.2-1.7,2.8-2.9c0.5-1,0.7-2,0.7-3.1c0-1.7-0.6-3.3-1.8-4.6
					c-0.4-0.4-0.8-0.7-1.2-0.9l-17.1-17.1c-2.5-2.5-6.5-2.5-8.9,0c-2.5,2.5-2.5,6.4,0,8.9L-492.2,451.1z"/>
			</g>
		</g>
	</g>
</g>
</svg>
