<?xml version="1.0" encoding="UTF-8" standalone="no"?>
<svg width="314px" height="366px" viewBox="0 0 314 366" version="1.1" xmlns="http://www.w3.org/2000/svg" xmlns:xlink="http://www.w3.org/1999/xlink" xmlns:sketch="http://www.bohemiancoding.com/sketch/ns">
    <!-- Generator: Sketch 3.3.3 (12072) - http://www.bohemiancoding.com/sketch -->
    <title>Arrow</title>
    <desc>Created with Sketch.</desc>
    <defs></defs>
    <g id="Page-1" stroke="none" stroke-width="1" fill="none" fill-rule="evenodd" sketch:type="MSPage">
        <g id="Artboard-15" sketch:type="MSArtboardGroup" transform="translate(-111.000000, -80.000000)" fill="#000000">
            <g id="Arrow-+-Oval-791-+-Oval-791" sketch:type="MSLayerGroup" transform="translate(111.000000, 80.000000)">
                <path d="M306.604682,165.374978 L306.777063,165.324543 C315.281025,194.389955 315.429127,226.231888 305.364817,257.206651 C278.741018,339.146277 190.732974,383.988615 108.793349,357.364817 C26.8537233,330.741018 -17.9886148,242.732974 8.63518346,160.793349 C29.337982,97.0766866 87.1579635,55.7916237 150.379287,53.0981885 L131.089798,33.8086995 C123.543169,26.2620707 123.541292,14.0153348 131.093691,6.46293564 C138.64775,-1.09112404 150.889205,-1.09120629 158.439455,6.45904296 L210.552256,58.5718449 C212.264032,59.4621744 213.870738,60.6258602 215.307805,62.0629275 C219.244774,65.9998965 221.128941,71.2125061 220.961656,76.3699888 C221.128941,81.5274714 219.244774,86.740081 215.307805,90.67705 C213.870738,92.1141173 212.264032,93.2778032 210.552256,94.1681326 L158.439455,146.280935 C150.889205,153.831184 138.64775,153.831102 131.093691,146.277042 C123.541292,138.724643 123.543169,126.477907 131.089798,118.931278 L154.01238,96.0086961 L154.01238,96.0086961 C107.515184,97.238628 64.724025,127.320568 49.5306137,174.08108 C30.2454265,233.434783 62.7273765,297.184199 122.08108,316.469386 C181.434783,335.754574 245.184199,303.272624 264.469386,243.91892 C271.585688,222.017195 271.829806,199.076176 265.533922,177.490719 C264.544382,175.020442 264,172.323795 264,169.5 C264,157.625878 273.625878,148 285.5,148 C295.963249,148 304.680782,155.474298 306.604682,165.374978 Z" id="Arrow" sketch:type="MSShapeGroup"></path>
            </g>
        </g>
    </g>
</svg>