<?xml version="1.0" encoding="utf-8"?>
<!-- Generator: Adobe Illustrator 19.1.0, SVG Export Plug-In . SVG Version: 6.00 Build 0)  -->
<svg version="1.1" id="Ebene_1" xmlns:sketch="http://www.bohemiancoding.com/sketch/ns"
	 xmlns="http://www.w3.org/2000/svg" xmlns:xlink="http://www.w3.org/1999/xlink" x="0px" y="0px" viewBox="-519.2 316.6 253 165.4"
	 enable-background="new -519.2 316.6 253 165.4" xml:space="preserve">
<title>Step 1</title>
<desc>Created with Sketch.</desc>
<g id="Page-1" sketch:type="MSPage">
	<g id="Start" transform="translate(-278.000000, -458.000000)" sketch:type="MSArtboardGroup">
		<g id="Schritt-1" transform="translate(278.000000, 458.000000)" sketch:type="MSLayerGroup">
			<g id="Step-1" sketch:type="MSShapeGroup">
				<path id="Shadow" fill-opacity="3.464674e-02" d="M-501,387h217c2.2,0,4,1.8,4,4v87c0,2.2-1.8,4-4,4h-217c-2.2,0-4-1.8-4-4v-87
					C-505,388.8-503.2,387-501,387z"/>
				<path id="Rectangle-21" fill="#FFFFFF" stroke="#1E1E1E" stroke-width="2" d="M-509,320h233c3.9,0,7,3.1,7,7v143
					c0,3.9-3.1,7-7,7h-233c-3.9,0-7-3.1-7-7V327C-516,323.1-512.9,320-509,320z"/>
				<path id="Rectangle-22" fill="#D8D8D8" d="M-505,389h225c2.8,0,5,2.2,5,5v72c0,2.8-2.2,5-5,5h-225c-2.8,0-5-2.2-5-5v-72
					C-510,391.2-507.8,389-505,389z"/>
				<path id="Rectangle-33-Copy" fill="#B4B4B4" d="M-328,447h37c2.2,0,4,1.8,4,4v6c0,2.2-1.8,4-4,4h-37c-2.2,0-4-1.8-4-4v-6
					C-332,448.8-330.2,447-328,447z"/>
				<g id="Oval-790" transform="translate(130.000000, 47.000000)">
					<circle fill="#FFFFFF" stroke="#979797" stroke-width="2" cx="-493.5" cy="342.5" r="22.5"/>
					<polygon id="Triangle-3" fill="#979797" points="-493.5,328 -486,339 -501,339 					"/>
					<polygon id="Triangle-3-Copy" fill="#979797" points="-493.5,357 -501,346 -486,346 					"/>
				</g>
				<g id="Text" transform="translate(16.000000, 19.000000)">
					<path id="Rectangle-23" fill="#D8D8D8" d="M-514,320h50c1.1,0,2,0.9,2,2v4c0,1.1-0.9,2-2,2h-50c-1.1,0-2-0.9-2-2v-4
						C-516,320.9-515.1,320-514,320z"/>
					<path id="Rectangle-23-Copy" fill="#D8D8D8" d="M-514,333h59c1.1,0,2,0.9,2,2v4c0,1.1-0.9,2-2,2h-59c-1.1,0-2-0.9-2-2v-4
						C-516,333.9-515.1,333-514,333z"/>
					<path id="Rectangle-23-Copy-2" fill="#D8D8D8" d="M-514,346h38c1.1,0,2,0.9,2,2v4c0,1.1-0.9,2-2,2h-38c-1.1,0-2-0.9-2-2v-4
						C-516,346.9-515.1,346-514,346z"/>
				</g>
			</g>
		</g>
	</g>
</g>
</svg>
