<svg width="328px"   height="209px" viewBox="0 0 328 209" version="1.1" xmlns="http://www.w3.org/2000/svg" xmlns:xlink="http://www.w3.org/1999/xlink" xmlns:sketch="http://www.bohemiancoding.com/sketch/ns">
    <title>Step 1</title>
    <defs>
        <filter x="-50%" y="-50%" width="200%" height="200%" filterUnits="objectBoundingBox" id="filter-1">
            <feOffset dx="0" dy="2" in="SourceAlpha" result="shadowOffsetOuter1"></feOffset>
            <feGaussianBlur stdDeviation="2" in="shadowOffsetOuter1" result="shadowBlurOuter1"></feGaussianBlur>
            <feColorMatrix values="0 0 0 0 0   0 0 0 0 0   0 0 0 0 0  0 0 0 0.135173234 0" in="shadowBlurOuter1" type="matrix" result="shadowMatrixOuter1"></feColorMatrix>
            <feMerge>
                <feMergeNode in="shadowMatrixOuter1"></feMergeNode>
                <feMergeNode in="SourceGraphic"></feMergeNode>
            </feMerge>
        </filter>
        <clipPath id="mask">
	      <rect x="7" y="7" width="313.064777" height="193"  />
	    </clipPath>
    </defs>
                <g id="tut_1" sketch:type="MSShapeGroup" >
                    <g id="Step-1">
                        <rect id="Frame" stroke="#DBDBDB" stroke-width="2" fill="#FFFFFF" x="0" y="0" width="328" height="208.310484" rx="7"></rect>
                        <path d="M21.2469636,27.2060642 C21.2469636,26.1034193 22.140644,25.2095491 23.2397019,25.2095491 L90.9627273,25.2095491 C92.0632863,25.2095491 92.9554656,26.1145394 92.9554656,27.2060642 L92.9554656,33.827581 C92.9554656,34.9302258 92.0617851,35.824096 90.9627273,35.824096 L23.2397019,35.824096 C22.1391429,35.824096 21.2469636,34.9191057 21.2469636,33.827581 L21.2469636,27.2060642 Z M21.2469636,44.454703 C21.2469636,43.3520582 22.1438919,42.4581879 23.25294,42.4581879 L102.900906,42.4581879 C104.008776,42.4581879 104.906883,43.3631782 104.906883,44.454703 L104.906883,51.0762198 C104.906883,52.1788646 104.009954,53.0727349 102.900906,53.0727349 L23.25294,53.0727349 C22.1450698,53.0727349 21.2469636,52.1677446 21.2469636,51.0762198 L21.2469636,44.454703 Z M21.2469636,61.7033418 C21.2469636,60.600697 22.1456187,59.7068267 23.2484081,59.7068267 L75.0187984,59.7068267 C76.1241657,59.7068267 77.0202429,60.6118171 77.0202429,61.7033418 L77.0202429,68.3248586 C77.0202429,69.4275035 76.1215878,70.3213737 75.0187984,70.3213737 L23.2484081,70.3213737 C22.1430408,70.3213737 21.2469636,69.4163834 21.2469636,68.3248586 L21.2469636,61.7033418 Z" id="question" fill="#000000"></path>
                        <rect   id="guess_fill" fill="#F39C0F" x="7.96761134" y="91.5504677" width="312.064777" height="108.799107" rx="5">
                        	 	<animate 
                        		attributeName="height"  
                        		from="108" 
                        		to="108" 
                        		values="108;108; 70; 70 ;108" 
                        		dur="2s" 
                        		fill="freeze" 
                        		repeatCount="indefinite"
                        		
                        	/>
                        	<animate 
                        		attributeName="y"  
                        		from="91" 
                        		to="91" 
                        		values="91;91;129;129;91;" 
                        		dur="2s" 
                        		fill="freeze" 
                        		repeatCount="indefinite"
                        		
                        	/>
                        </rect>
                        <rect ng-class="{'translated':introStep>2}" id="guess" fill="#FFFFFF" x="244.340081" y="168.505933" width="59.757085" height="18.5754572" rx="4"></rect>
                        <g id="cursor" transform="translate(172.631579, 62.360463)">
                        	            	<animateTransform ng-if="introStep==1"
                        		  attributeName="transform"
		                          attributeType="XML"
		                          type="translate"
		                          from="172 62"
		                          to="172 62"
								  
								  values="172 62;172 62; 172 100; 172 100 ;172 62" 

		                          dur="2s"
		                          repeatCount="indefinite"/>
                        	>
                            <ellipse id="Oval-790" fill="#FFFFFF" filter="url(#filter-1)" cx="29.8785425" cy="29.8534134" rx="29.8785425" ry="29.8534134"></ellipse>
                            <polygon id="Triangle-3" fill="#F39C0F" points="29.8785425 10.614547 39.8380567 25.2095491 19.9190283 25.2095491 "></polygon>
                            <polygon id="Triangle-3-Copy" fill="#F39C0F" transform="translate(29.878543, 41.794779) scale(-1, -1) translate(-29.878543, -41.794779) " points="29.8785425 34.4972777 39.8380567 49.0922798 19.9190283 49.0922798 "></polygon>
                        </g>
                        <g clip-path="url(#mask)">
                        <g  id="answer_fill"  ng-show="introStep>=2">


                            <rect fill="#484848" x="0.31951635" y="0.758241758" width="311.522763" height="148.241758" rx="5 "></rect>
                            <rect id="Rectangle-23-Copy-3" fill="#FFFFFF" x="170" y="34" width="35.791977" height="10.6373626" rx="2"></rect>
                            <rect id="Rectangle-23" fill="#FFFFFF" x="170" y="63.2527473" width="71.583954" height="7.97802198" rx="2"></rect>
                            <rect id="Rectangle-23-Copy" fill="#FFFFFF" x="170" y="80.5384615" width="83.514613" height="7.97802198" rx="2"></rect>
                            <rect id="Rectangle-23-Copy-2" fill="#FFFFFF" x="170" y="97.8241758" width="55.6764087" height="7.97802198" rx="2"></rect>
                        </g>
                    	</g>
                        <g ng-show="introStep>=2" id="chart" transform="translate(78.212098, 55.846154)">
                            <rect ng-show="introStep>=2" id="chart_left" fill="#FFFFFF" x="10.6050302" y="0" width="22.5356892" height="50.5274725"></rect>
                            <rect ng-show="introStep>=2" id="chart_right" fill="#F39C0F" x="41.0944921" y="25.2637363" width="22" height="25"></rect>
                            <rect ng-show="introStep>=2" id="chart_bottom_bar" fill="#FFFFFF" x="0" y="54.5164835" width="76.8864692" height="2.65934066"></rect>
                        </g>
                        <g  id="intro_next_button" transform="translate(262.000000, 156.000000)">
                            <rect ng-show="introStep > 2" class="buttonAnimation" id="intro_next_button_bg" fill="#FFFFFF" x="0" y="0" width="58.4291498" height="45.2611465" rx="0"></rect>
                            <path ng-show="introStep > 2" class="buttonAnimation" d="M34.9817443,19.9448135 L18.5536147,19.9448135 C17.1133633,19.9448135 15.9352227,21.1204993 15.9352227,22.5707811 C15.9352227,24.018112 17.1075167,25.1967488 18.5536147,25.1967488 L34.6534983,25.1967488 L31.7137375,28.1365096 C30.6872556,29.1629916 30.6843541,30.8285638 31.7098582,31.854068 C32.7332757,32.8774855 34.39977,32.8778353 35.4274166,31.8501887 L42.4016707,24.8759346 C42.9145279,24.5944131 43.3242926,24.1456969 43.5566671,23.6028721 C43.7403602,23.2270834 43.8288372,22.8163159 43.8222342,22.4066582 C43.8332905,21.7207101 43.5777658,21.0316503 43.0550208,20.5089054 C42.9218452,20.3757298 42.7777802,20.2598781 42.6256503,20.1613614 L35.4274166,12.9631276 C34.39977,11.935481 32.7332757,11.9358309 31.7098582,12.9592483 C30.6843541,13.9847525 30.6872556,15.6503248 31.7137375,16.6768067 L34.9817443,19.9448135 Z" id="Arrow-Copy" fill="#000000"></path>
                        </g>
                    </g>
                </g>
</svg>
