<?xml version="1.0" encoding="UTF-8" standalone="no"?>
<svg width="110px" height="38px" viewBox="0 0 110 38" version="1.1" xmlns="http://www.w3.org/2000/svg" xmlns:xlink="http://www.w3.org/1999/xlink" xmlns:sketch="http://www.bohemiancoding.com/sketch/ns">
    <!-- Generator: Sketch 3.4.2 (15855) - http://www.bohemiancoding.com/sketch -->
    <title>tweet</title>
    <desc>Created with Sketch.</desc>
    <defs></defs>
    <g id="Page-3" stroke="none" stroke-width="1" fill="none" fill-rule="evenodd" sketch:type="MSPage">
        <g id="Artboard-1" sketch:type="MSArtboardGroup" transform="translate(-1205.000000, -107.000000)">
            <g id="Share-me" sketch:type="MSLayerGroup" transform="translate(921.000000, 103.000000)">
                <g id="tweet" transform="translate(284.000000, 4.000000)" sketch:type="MSShapeGroup">
                    <rect id="Base" fill="#4099FF" x="0" y="0" width="110" height="38" rx="4"></rect>
                    <path d="M35.4076845,12.8271068 C36.3394272,12.2685097 37.0552282,11.3840243 37.3921699,10.33 C36.5200194,10.847267 35.5541019,11.2228689 34.5259757,11.4252476 C33.7026845,10.5480243 32.5296359,10 31.2314223,10 C28.3180243,10 26.176335,12.7188155 26.8347864,15.5420243 C23.0835728,15.3538495 19.7577282,13.5568447 17.5316165,10.8262282 C16.3492767,12.8544466 16.9183398,15.5087573 18.9284029,16.852199 C18.1886262,16.8288107 17.4924757,16.6257379 16.8840583,16.287568 C16.8350922,18.3787427 18.3336019,20.3341262 20.5041796,20.7702816 C19.8689563,20.9431311 19.1731796,20.982699 18.4659757,20.8475485 C19.0402184,22.6406553 20.707199,23.9455971 22.6822864,23.9819612 C20.7846796,25.4690437 18.3946893,26.1332621 16,25.8510534 C17.9974078,27.1316456 20.3699369,27.8789515 22.9188398,27.8789515 C31.2987039,27.8789515 36.0331359,20.8009854 35.7477767,14.4528107 C36.6297524,13.816466 37.3948932,13.0215291 38,12.1163786 C37.1905922,12.4754272 36.3206845,12.7181214 35.4076845,12.8271068 Z" id="Bird" fill="#FFFFFF"></path>
                    <path d="M50.696,16.416 L50.696,18.144 L52.184,18.144 L52.184,21.504 C52.184,21.9093335 52.248,22.2773335 52.376,22.608 C52.504,22.9386665 52.6853333,23.2213333 52.92,23.456 C53.1546667,23.6906667 53.432,23.872 53.752,24 C54.072,24.128 54.4186667,24.192 54.792,24.192 C55.1333335,24.192 55.464,24.1466667 55.784,24.056 C56.104,23.9653333 56.376,23.8453333 56.6,23.696 L55.896,22.128 C55.789333,22.2026665 55.6666665,22.2666665 55.528,22.32 C55.3893335,22.3733335 55.24,22.4 55.08,22.4 C54.962667,22.4 54.8453335,22.3813335 54.728,22.344 C54.6106665,22.3066665 54.5066665,22.2426665 54.416,22.152 C54.3253335,22.0613335 54.2506667,21.9386667 54.192,21.784 C54.1333333,21.6293335 54.104,21.4346667 54.104,21.2 L54.104,18.144 L56.392,18.144 L56.392,16.416 L54.104,16.416 L54.104,14.16 L52.184,14.16 L52.184,16.416 L50.696,16.416 Z M59.208,16.416 L57.064,16.416 L60.728,24.384 L63.128,18.976 L65.56,24.384 L69.224,16.416 L67.272,16.416 L65.64,20.304 L64.04,16.416 L62.424,16.416 L60.776,20.304 L59.208,16.416 Z M75.448,19.504 L71.688,19.504 C71.6986667,19.3333335 71.744,19.1573335 71.824,18.976 C71.904,18.794667 72.0213333,18.6293335 72.176,18.48 C72.3306667,18.3306665 72.52,18.208 72.744,18.112 C72.968,18.016 73.2346667,17.968 73.544,17.968 C73.864,17.968 74.1413335,18.016 74.376,18.112 C74.610667,18.208 74.8053335,18.3333335 74.96,18.488 C75.1146665,18.6426665 75.232,18.8106665 75.312,18.992 C75.392,19.1733335 75.4373335,19.344 75.448,19.504 L75.448,19.504 Z M73.544,16.224 C73,16.224 72.4933333,16.328 72.024,16.536 C71.5546667,16.744 71.152,17.0266665 70.816,17.384 C70.48,17.7413335 70.216,18.16 70.024,18.64 C69.832,19.12 69.736,19.632 69.736,20.176 C69.736,20.7413333 69.84,21.2693333 70.048,21.76 C70.256,22.2506667 70.544,22.6773335 70.912,23.04 C71.28,23.4026667 71.712,23.6853333 72.208,23.888 C72.704,24.0906667 73.24,24.192 73.816,24.192 C74.488,24.192 75.0853335,24.0746667 75.608,23.84 C76.1306665,23.6053333 76.5466665,23.36 76.856,23.104 L75.896,21.664 C75.5973335,21.9413333 75.2613335,22.1386665 74.888,22.256 C74.5146665,22.3733335 74.168,22.432 73.848,22.432 C73.5386665,22.432 73.2613333,22.384 73.016,22.288 C72.7706667,22.192 72.5546667,22.072 72.368,21.928 C72.1813333,21.784 72.032,21.6213333 71.92,21.44 C71.808,21.2586665 71.7306667,21.0773333 71.688,20.896 L77.352,20.896 C77.3626665,20.7466667 77.368,20.608 77.368,20.48 L77.368,20.176 C77.368,19.5893335 77.2666665,19.0533335 77.064,18.568 C76.861333,18.0826665 76.5866665,17.6666665 76.24,17.32 C75.8933335,16.9733335 75.488,16.704 75.024,16.512 C74.56,16.32 74.0666665,16.224 73.544,16.224 L73.544,16.224 Z M83.976,19.504 L80.216,19.504 C80.2266667,19.3333335 80.272,19.1573335 80.352,18.976 C80.432,18.794667 80.5493333,18.6293335 80.704,18.48 C80.8586667,18.3306665 81.048,18.208 81.272,18.112 C81.496,18.016 81.7626667,17.968 82.072,17.968 C82.392,17.968 82.6693335,18.016 82.904,18.112 C83.138667,18.208 83.3333335,18.3333335 83.488,18.488 C83.6426665,18.6426665 83.76,18.8106665 83.84,18.992 C83.92,19.1733335 83.9653335,19.344 83.976,19.504 L83.976,19.504 Z M82.072,16.224 C81.528,16.224 81.0213333,16.328 80.552,16.536 C80.0826667,16.744 79.68,17.0266665 79.344,17.384 C79.008,17.7413335 78.744,18.16 78.552,18.64 C78.36,19.12 78.264,19.632 78.264,20.176 C78.264,20.7413333 78.368,21.2693333 78.576,21.76 C78.784,22.2506667 79.072,22.6773335 79.44,23.04 C79.808,23.4026667 80.24,23.6853333 80.736,23.888 C81.232,24.0906667 81.768,24.192 82.344,24.192 C83.016,24.192 83.6133335,24.0746667 84.136,23.84 C84.6586665,23.6053333 85.0746665,23.36 85.384,23.104 L84.424,21.664 C84.1253335,21.9413333 83.7893335,22.1386665 83.416,22.256 C83.0426665,22.3733335 82.696,22.432 82.376,22.432 C82.0666665,22.432 81.7893333,22.384 81.544,22.288 C81.2986667,22.192 81.0826667,22.072 80.896,21.928 C80.7093333,21.784 80.56,21.6213333 80.448,21.44 C80.336,21.2586665 80.2586667,21.0773333 80.216,20.896 L85.88,20.896 C85.8906665,20.7466667 85.896,20.608 85.896,20.48 L85.896,20.176 C85.896,19.5893335 85.7946665,19.0533335 85.592,18.568 C85.389333,18.0826665 85.1146665,17.6666665 84.768,17.32 C84.4213335,16.9733335 84.016,16.704 83.552,16.512 C83.088,16.32 82.5946665,16.224 82.072,16.224 L82.072,16.224 Z M86.696,16.416 L86.696,18.144 L88.184,18.144 L88.184,21.504 C88.184,21.9093335 88.248,22.2773335 88.376,22.608 C88.504,22.9386665 88.6853333,23.2213333 88.92,23.456 C89.1546667,23.6906667 89.432,23.872 89.752,24 C90.072,24.128 90.4186667,24.192 90.792,24.192 C91.1333335,24.192 91.464,24.1466667 91.784,24.056 C92.104,23.9653333 92.376,23.8453333 92.6,23.696 L91.896,22.128 C91.789333,22.2026665 91.6666665,22.2666665 91.528,22.32 C91.3893335,22.3733335 91.24,22.4 91.08,22.4 C90.962667,22.4 90.8453335,22.3813335 90.728,22.344 C90.6106665,22.3066665 90.5066665,22.2426665 90.416,22.152 C90.3253335,22.0613335 90.2506667,21.9386667 90.192,21.784 C90.1333333,21.6293335 90.104,21.4346667 90.104,21.2 L90.104,18.144 L92.392,18.144 L92.392,16.416 L90.104,16.416 L90.104,14.16 L88.184,14.16 L88.184,16.416 L86.696,16.416 Z" fill="#FFFFFF"></path>
                </g>
            </g>
        </g>
    </g>
</svg>